<svg xmlns="http://www.w3.org/2000/svg" viewBox="0 0 480 620"><defs><linearGradient id="b" y2="1"><stop stop-color="#2a1765"/><stop offset="1" stop-color="#080b18"/></linearGradient></defs><rect width="480" height="620" fill="url(#b)"/><circle cx="240" cy="200" r="110" fill="#a63cff" opacity=".22"/><g shape-rendering="crispEdges"><path fill="#181b3a" d="M145 155h190l55 315H90z"/><path fill="#5b3bb3" d="M175 110h130v145H175z"/><path fill="#b65cff" d="M205 125h70v70h-70"/><path fill="#eff0ff" d="M215 145h15v15h-15zm35 0h15v15h-15z"/><path fill="#2c285b" d="M180 250h120v185H180z"/><path fill="#67d6ff" d="M135 290h35v35h-35zm175 0h35v35h-35z"/><path fill="#a85bff" d="M150 275h15v90h-15zm165 0h15v90h-15z"/><path fill="#222941" d="M175 430h55v110h-55zm75 0h55v110h-55z"/><path fill="#7c4cff" d="M355 215h12v230h-12z"/><path fill="#f0caff" d="M340 200h40v40h-40z"/></g><text x="240" y="585" fill="#d06aff" font-family="monospace" font-size="24" font-weight="900" text-anchor="middle">ARCANIST</text></svg>
